<svg width="20" height="20" viewBox="0 0 10 10" fill="none" xmlns="http://www.w3.org/2000/svg">
    <path fill-rule="evenodd" clip-rule="evenodd" d="M9.89508 6.76372C9.92834 6.79468 9.95473 6.83146 9.97273 6.87195C9.99073 6.91245 10 6.95586 10 6.99971C10 7.04355 9.99073 7.08696 9.97273 7.12746C9.95473 7.16795 9.92834 7.20473 9.89508 7.2357L7.03812 9.90225C6.97106 9.96484 6.88012 10 6.78528 10C6.69045 10 6.5995 9.96484 6.53244 9.90225C6.46538 9.83966 6.42771 9.75477 6.42771 9.66626C6.42771 9.57775 6.46538 9.49286 6.53244 9.43027L8.78015 7.33302H1.7856C1.31203 7.33302 0.857855 7.15744 0.52299 6.84489C0.188125 6.53234 0 6.10844 0 5.66643L0 0.33332C0 0.244918 0.037625 0.160136 0.104598 0.0976267C0.171571 0.0351171 0.262406 0 0.35712 0C0.451834 0 0.542669 0.0351171 0.609642 0.0976267C0.676615 0.160136 0.71424 0.244918 0.71424 0.33332L0.71424 5.66643C0.71424 5.93163 0.827115 6.18598 1.02803 6.3735C1.22895 6.56103 1.50146 6.66639 1.7856 6.66639H8.78015L6.53244 4.56914C6.46538 4.50655 6.42771 4.42166 6.42771 4.33315C6.42771 4.24464 6.46538 4.15975 6.53244 4.09716C6.5995 4.03457 6.69045 3.99941 6.78528 3.99941C6.88012 3.99941 6.97106 4.03457 7.03812 4.09716L9.89508 6.76372Z" fill="#9A9A9A"/>
</svg>
