<svg width="25" height="26" viewBox="0 0 25 26" fill="none" xmlns="http://www.w3.org/2000/svg">
<path d="M26.5985 9.5H19.088L16.37 12.218C16.0366 12.5529 15.6401 12.8184 15.2034 12.9992C14.7667 13.1799 14.2986 13.2723 13.826 13.271C12.863 13.271 11.96 12.896 11.279 12.2165C10.9442 11.8832 10.6787 11.487 10.4977 11.0506C10.3167 10.6143 10.2239 10.1464 10.2245 9.674C10.2245 9.6155 10.2395 9.5585 10.241 9.5H1.4C1.16131 9.5 0.932387 9.59482 0.763604 9.7636C0.594821 9.93239 0.5 10.1613 0.5 10.4V14H27.5V10.4C27.5 10.2817 27.4767 10.1645 27.4314 10.0552C27.386 9.94595 27.3196 9.84666 27.2359 9.76307C27.1521 9.67948 27.0527 9.61322 26.9434 9.56808C26.834 9.52293 26.7168 9.4998 26.5985 9.5ZM15.152 10.9985L22.7345 3.416C22.8184 3.33261 22.885 3.23351 22.9305 3.12436C22.9761 3.0152 22.9997 2.89815 23 2.77987C23.0002 2.6616 22.9772 2.54443 22.9322 2.43506C22.8871 2.3257 22.821 2.22628 22.7375 2.1425L21.3575 0.7625C21.188 0.59414 20.9589 0.499649 20.72 0.499649C20.4811 0.499649 20.252 0.59414 20.0825 0.7625L12.5 8.3465C12.1483 8.69818 11.9508 9.17515 11.9508 9.6725C11.9508 10.1698 12.1483 10.6468 12.5 10.9985C12.8517 11.3502 13.3287 11.5477 13.826 11.5477C14.3233 11.5477 14.8003 11.3502 15.152 10.9985ZM4.7345 24.9065C4.88 25.508 5.507 26 6.125 26H21.875C22.493 26 23.12 25.508 23.2655 24.9065L25.55 15.5H2.45L4.7345 24.9065Z" fill="black"/>
</svg>
