<svg width="65" height="65" viewBox="0 0 65 65" fill="none" xmlns="http://www.w3.org/2000/svg">
    <rect width="65" height="65" fill="#99A5B6"/>
    <path d="M33 15C29.5909 15 26.9276 16.3145 25.0099 18.9435C23.0923 21.5724 22.1335 24.933 22.1335 29.0253C22.1098 34.1096 23.6723 38.1399 26.821 41.1161C27.2235 41.5129 27.3655 42.0213 27.2472 42.6414L26.4304 44.4271C26.17 45.0223 25.7853 45.4874 25.2763 45.8222C24.7673 46.157 23.696 46.6344 22.0625 47.2545C21.9915 47.2793 20.4941 47.7877 17.5703 48.7798C14.6465 49.7718 13.09 50.3175 12.9006 50.4167C10.9119 51.2847 9.60985 52.19 8.99432 53.1324C8.33144 54.6949 8 58.6508 8 65H58C58 58.6508 57.6686 54.6949 57.0057 53.1324C56.3902 52.19 55.0881 51.2847 53.0994 50.4167C52.91 50.3175 51.3535 49.7718 48.4297 48.7798C45.5059 47.7877 44.0085 47.2793 43.9375 47.2545C42.304 46.6344 41.2327 46.157 40.7237 45.8222C40.2147 45.4874 39.83 45.0223 39.5696 44.4271L38.7528 42.6414C38.6345 42.0213 38.7765 41.5129 39.179 41.1161C42.3277 38.1399 43.8902 34.1096 43.8665 29.0253C43.8665 24.933 42.9077 21.5724 40.9901 18.9435C39.0724 16.3145 36.4091 15 33 15Z" fill="white"/>
</svg>
